<?xml version="1.0" ?><svg fill="none" height="28" viewBox="0 0 28 28" width="28" xmlns="http://www.w3.org/2000/svg"><path d="M9.91485 21.5689C9.96933 21.896 10.2785 22.117 10.6053 22.0625L11.3944 21.9309C11.7213 21.8763 11.9421 21.567 11.8876 21.2399L11.1398 16.7496C11.0853 16.4225 10.7762 16.2016 10.4493 16.2561L9.6602 16.3877C9.33334 16.4422 9.11252 16.7516 9.167 17.0787L9.91485 21.5689Z" fill="black"/><path d="M16.1121 21.2399C16.0577 21.567 16.2785 21.8763 16.6053 21.9309L17.3944 22.0625C17.7213 22.117 18.0304 21.896 18.0849 21.5689L18.8328 17.078C18.8873 16.7509 18.6665 16.4415 18.3396 16.387L17.5505 16.2554C17.2237 16.2009 16.9145 16.4219 16.8601 16.749L16.1121 21.2399Z" fill="black"/><path clip-rule="evenodd" d="M21.2371 8.98725H6.52918L12.1736 3.69163C12.4557 3.42702 12.4699 2.9837 12.2055 2.70145L11.7952 2.2634C11.5308 1.98115 11.0878 1.96685 10.8057 2.23146L3.82708 8.77885C3.76176 8.84014 3.71079 8.91101 3.67433 8.98725H2C1.44772 8.98725 1 9.43531 1 9.988V13.991C1 14.5437 1.44772 14.9918 2 14.9918H2.42519L4.56603 25.0493C4.68403 25.6037 5.1733 26 5.73969 26H22.2586C22.825 26 23.3143 25.6037 23.4323 25.0493L25.5731 14.9918H26C26.5523 14.9918 27 14.5437 27 13.991V9.988C27 9.43531 26.5523 8.98725 26 8.98725H24.2757C24.2341 8.90663 24.176 8.83282 24.102 8.77108L16.1775 2.16238C15.8805 1.9147 15.4391 1.95486 15.1916 2.25208L14.8075 2.71336C14.56 3.01057 14.6001 3.4523 14.8971 3.69998L21.2371 8.98725ZM3.6 10.9888C3.26863 10.9888 3 11.2576 3 11.5892V12.3898C3 12.7214 3.26863 12.9903 3.6 12.9903H24.4C24.7314 12.9903 25 12.7214 25 12.3898V11.5892C25 11.2576 24.7314 10.9888 24.4 10.9888H3.6ZM4.65025 15.8382C4.55747 15.4024 4.88958 14.9918 5.33489 14.9918H22.6634C23.1087 14.9918 23.4408 15.4024 23.3481 15.8382L21.7291 23.4439C21.6603 23.7673 21.3749 23.9985 21.0445 23.9985H6.95382C6.62342 23.9985 6.33802 23.7673 6.26918 23.4439L4.65025 15.8382Z" fill="black" fill-rule="evenodd"/></svg>